<svg width="171" height="40" viewBox="0 0 171 40" fill="none" xmlns="http://www.w3.org/2000/svg">
<g filter="url(#filter0_dd)">
<path d="M61.2658 12.2498V14.365L59.3861 14.7255V23.8589C59.3861 25.0126 59.6954 25.8779 60.3139 26.4548C60.9405 27.0236 61.796 27.308 62.8805 27.308C63.981 27.308 64.8445 27.0236 65.4711 26.4548C66.0977 25.8859 66.411 25.0207 66.411 23.8589V14.7255L64.5433 14.365V12.2498H71.8091V14.365L69.9294 14.7255V23.8589C69.9294 25.8218 69.2787 27.3361 67.9774 28.4016C66.6841 29.4672 64.9851 30 62.8805 30C60.7839 30 59.0889 29.4672 57.7956 28.4016C56.5103 27.3361 55.8677 25.8218 55.8677 23.8589V14.7255L54 14.365V12.2498H61.2658Z" fill="white"/>
<path d="M72.749 27.6445L74.4359 27.284V19.2201L72.5682 18.8596V16.7445H77.7134L77.87 18.6072C78.3038 17.9422 78.838 17.4255 79.4726 17.0569C80.1072 16.6884 80.8181 16.5041 81.6054 16.5041C82.9228 16.5041 83.951 16.9167 84.69 17.7419C85.4291 18.5672 85.7986 19.8611 85.7986 21.6237V27.284L87.4855 27.6445V29.7476H80.7619V27.6445L82.2681 27.284V21.6357C82.2681 20.7624 82.0913 20.1455 81.7379 19.7849C81.3844 19.4164 80.8503 19.2321 80.1353 19.2321C79.6694 19.2321 79.2517 19.3283 78.8822 19.5206C78.5127 19.7048 78.2034 19.9692 77.9544 20.3137V27.284L79.3762 27.6445V29.7476H72.749V27.6445Z" fill="white"/>
<path d="M88.4977 27.6445L90.1966 27.284V19.2201L88.3169 18.8596V16.7445H93.7151V27.284L95.402 27.6445V29.7476H88.4977V27.6445ZM93.7151 13.6319H90.1966V11H93.7151V13.6319Z" fill="white"/>
<path d="M102.089 18.8596L100.86 19.0879L102.583 24.9045L102.812 26.1303H102.885L103.138 24.9045L104.837 19.0999L103.584 18.8596V16.7445H109.5V18.8596L108.367 19.0398L104.523 29.7476H101.162L97.3058 19.0398L96.1732 18.8596V16.7445H102.089V18.8596Z" fill="white"/>
<path d="M116.705 30C114.826 30 113.324 29.3991 112.199 28.1973C111.074 26.9956 110.512 25.4693 110.512 23.6186V23.1379C110.512 21.207 111.042 19.6167 112.103 18.3669C113.171 17.117 114.601 16.4961 116.392 16.5041C118.151 16.5041 119.517 17.0329 120.489 18.0904C121.461 19.148 121.947 20.5781 121.947 22.3808V24.2916H114.163L114.139 24.3637C114.203 25.221 114.488 25.926 114.994 26.4788C115.509 27.0316 116.203 27.308 117.079 27.308C117.858 27.308 118.505 27.2319 119.019 27.0797C119.533 26.9195 120.095 26.6711 120.706 26.3346L121.658 28.4978C121.12 28.9224 120.421 29.2789 119.561 29.5674C118.71 29.8558 117.758 30 116.705 30ZM116.392 19.2081C115.742 19.2081 115.227 19.4565 114.85 19.9532C114.472 20.4499 114.239 21.1029 114.151 21.9121L114.187 21.9722H118.501V21.6597C118.501 20.9146 118.324 20.3217 117.971 19.8811C117.625 19.4324 117.099 19.2081 116.392 19.2081Z" fill="white"/>
<path d="M123.887 27.6445L125.574 27.284V19.2201L123.706 18.8596V16.7445H128.851L129.008 18.6433C129.313 17.9703 129.707 17.4455 130.189 17.0689C130.671 16.6924 131.229 16.5041 131.864 16.5041C132.048 16.5041 132.241 16.5201 132.442 16.5522C132.651 16.5762 132.824 16.6083 132.96 16.6483L132.587 19.845L131.141 19.809C130.627 19.809 130.201 19.9091 129.864 20.1094C129.526 20.3097 129.269 20.5941 129.092 20.9627V27.284L130.779 27.6445V29.7476H123.887V27.6445Z" fill="white"/>
<path d="M144.648 21.2151H142.287L141.913 19.5927C141.672 19.4004 141.367 19.2401 140.997 19.112C140.636 18.9838 140.234 18.9197 139.792 18.9197C139.174 18.9197 138.684 19.0599 138.322 19.3403C137.961 19.6127 137.78 19.9572 137.78 20.3738C137.78 20.7664 137.953 21.0949 138.298 21.3593C138.644 21.6156 139.334 21.844 140.371 22.0443C141.985 22.3647 143.182 22.8374 143.961 23.4624C144.741 24.0793 145.13 24.9325 145.13 26.0221C145.13 27.1919 144.624 28.1493 143.612 28.8944C142.608 29.6315 141.282 30 139.636 30C138.632 30 137.708 29.8558 136.864 29.5674C136.029 29.2709 135.286 28.8503 134.635 28.3055L134.599 25.3852H137.057L137.539 27.0797C137.748 27.256 138.033 27.3882 138.395 27.4763C138.756 27.5564 139.134 27.5965 139.527 27.5965C140.242 27.5965 140.784 27.4683 141.154 27.2119C141.531 26.9555 141.72 26.607 141.72 26.1664C141.72 25.7818 141.531 25.4493 141.154 25.1689C140.776 24.8885 140.081 24.6401 139.069 24.4238C137.535 24.1113 136.374 23.6506 135.587 23.0417C134.808 22.4248 134.418 21.5876 134.418 20.53C134.418 19.4404 134.868 18.5031 135.768 17.7179C136.667 16.9247 137.949 16.5281 139.612 16.5281C140.624 16.5281 141.58 16.6643 142.479 16.9367C143.387 17.2092 144.098 17.5577 144.612 17.9823L144.648 21.2151Z" fill="white"/>
<path d="M155.011 29.7476C154.914 29.5313 154.83 29.311 154.758 29.0867C154.685 28.8543 154.629 28.622 154.589 28.3896C154.171 28.8703 153.661 29.2589 153.059 29.5553C152.464 29.8518 151.782 30 151.01 30C149.733 30 148.717 29.6555 147.962 28.9665C147.215 28.2694 146.841 27.3241 146.841 26.1303C146.841 24.9125 147.331 23.9711 148.311 23.3061C149.291 22.6412 150.729 22.3087 152.625 22.3087H154.42V21.0348C154.42 20.4099 154.24 19.9252 153.878 19.5806C153.517 19.2361 152.982 19.0639 152.276 19.0639C151.874 19.0639 151.516 19.112 151.203 19.2081C150.89 19.2962 150.637 19.4044 150.444 19.5326L150.215 20.9266H147.564L147.576 18.0424C148.219 17.6097 148.954 17.2452 149.781 16.9488C150.617 16.6523 151.524 16.5041 152.504 16.5041C154.119 16.5041 155.428 16.9007 156.433 17.6939C157.445 18.479 157.951 19.6007 157.951 21.0588V26.4307C157.951 26.631 157.951 26.8193 157.951 26.9956C157.959 27.1718 157.975 27.3401 157.999 27.5003L159.071 27.6445V29.7476H155.011ZM151.962 27.4042C152.492 27.4042 152.974 27.292 153.408 27.0677C153.842 26.8353 154.179 26.5469 154.42 26.2024V24.2195H152.625C151.878 24.2195 151.312 24.3957 150.926 24.7483C150.54 25.0928 150.348 25.5094 150.348 25.9981C150.348 26.4388 150.488 26.7833 150.769 27.0316C151.059 27.28 151.456 27.4042 151.962 27.4042Z" fill="white"/>
<path d="M159.903 13.1151V11H165.301V27.284L167 27.6445V29.7476H160.084V27.6445L161.783 27.284V13.4756L159.903 13.1151Z" fill="white"/>
</g>
<path fill-rule="evenodd" clip-rule="evenodd" d="M23.521 40C34.3021 40 43.0419 31.0457 43.0419 20C43.0419 8.9543 34.3021 0 23.521 0C12.7398 0 4 8.9543 4 20C4 31.0457 12.7398 40 23.521 40Z" fill="white"/>
<mask id="mask0" mask-type="alpha" maskUnits="userSpaceOnUse" x="4" y="0" width="40" height="40">
<path fill-rule="evenodd" clip-rule="evenodd" d="M24 40C35.0457 40 44 31.0457 44 20C44 8.9543 35.0457 0 24 0C12.9543 0 4 8.9543 4 20C4 31.0457 12.9543 40 24 40Z" fill="white"/>
</mask>
<g mask="url(#mask0)">
<g filter="url(#filter1_dd)">
<path d="M5.87961 27.1313C6.50776 27.1313 7.06746 27.0246 7.55871 26.8112C8.05801 26.5978 8.47677 26.2982 8.81501 25.9124C9.15324 25.5267 9.41095 25.0588 9.58812 24.5089C9.77334 23.959 9.86595 23.3434 9.86595 22.6621V12H13.1154V22.6621C13.1154 23.7209 12.9463 24.7018 12.6081 25.6046C12.2779 26.4993 11.7987 27.275 11.1706 27.9316C10.5505 28.58 9.79348 29.0889 8.89957 29.4583C8.00566 29.8194 6.99901 30 5.87961 30C4.75216 30 3.74148 29.8194 2.84757 29.4583C1.95367 29.0889 1.19264 28.58 0.564486 27.9316C-0.0556115 27.275 -0.534778 26.4993 -0.873013 25.6046C-1.2032 24.7018 -1.36829 23.7209 -1.36829 22.6621V12H1.88119V22.6498C1.88119 23.3311 1.96977 23.9466 2.14694 24.4966C2.33217 25.0465 2.5939 25.5185 2.93213 25.9124C3.27842 26.2982 3.69719 26.5978 4.18843 26.8112C4.68773 27.0246 5.25146 27.1313 5.87961 27.1313Z" fill="#4592FF"/>
<path d="M31.5055 12V29.803H29.8384C29.5807 29.803 29.3633 29.762 29.1861 29.6799C29.017 29.5896 28.8519 29.4419 28.6909 29.2367L19.5706 17.368C19.6189 17.9097 19.6431 18.4104 19.6431 18.87V29.803H16.7801V12H18.4834C18.6203 12 18.7371 12.0082 18.8337 12.0246C18.9384 12.0328 19.027 12.0575 19.0995 12.0985C19.18 12.1313 19.2565 12.1847 19.329 12.2586C19.4015 12.3242 19.482 12.4145 19.5706 12.5294L28.7271 24.4473C28.7029 24.1601 28.6828 23.8769 28.6667 23.5978C28.6506 23.3187 28.6425 23.0602 28.6425 22.8222V12H31.5055Z" fill="#4592FF"/>
<path d="M50.3623 12L43.3076 29.803H40.3722L33.3176 12H35.9269C36.2087 12 36.4382 12.0698 36.6154 12.2093C36.7926 12.3488 36.9255 12.5294 37.014 12.751L41.1333 23.6101C41.2702 23.9631 41.399 24.3529 41.5198 24.7798C41.6487 25.1984 41.7695 25.6375 41.8822 26.0971C41.9789 25.6375 42.0835 25.1984 42.1963 24.7798C42.309 24.3529 42.4339 23.9631 42.5708 23.6101L46.6658 12.751C46.7303 12.5622 46.8551 12.3899 47.0403 12.2339C47.2336 12.078 47.4671 12 47.7409 12H50.3623Z" fill="#4592FF"/>
</g>
</g>
<defs>
<filter id="filter0_dd" x="50" y="11" width="121" height="27" filterUnits="userSpaceOnUse" color-interpolation-filters="sRGB">
<feFlood flood-opacity="0" result="BackgroundImageFix"/>
<feColorMatrix in="SourceAlpha" type="matrix" values="0 0 0 0 0 0 0 0 0 0 0 0 0 0 0 0 0 0 127 0"/>
<feOffset dy="4"/>
<feGaussianBlur stdDeviation="2"/>
<feColorMatrix type="matrix" values="0 0 0 0 0 0 0 0 0 0 0 0 0 0 0 0 0 0 0.25 0"/>
<feBlend mode="normal" in2="BackgroundImageFix" result="effect1_dropShadow"/>
<feColorMatrix in="SourceAlpha" type="matrix" values="0 0 0 0 0 0 0 0 0 0 0 0 0 0 0 0 0 0 127 0"/>
<feOffset dy="4"/>
<feGaussianBlur stdDeviation="2"/>
<feColorMatrix type="matrix" values="0 0 0 0 0 0 0 0 0 0 0 0 0 0 0 0 0 0 0.25 0"/>
<feBlend mode="normal" in2="effect1_dropShadow" result="effect2_dropShadow"/>
<feBlend mode="normal" in="SourceGraphic" in2="effect2_dropShadow" result="shape"/>
</filter>
<filter id="filter1_dd" x="-5.36829" y="12" width="59.7305" height="26" filterUnits="userSpaceOnUse" color-interpolation-filters="sRGB">
<feFlood flood-opacity="0" result="BackgroundImageFix"/>
<feColorMatrix in="SourceAlpha" type="matrix" values="0 0 0 0 0 0 0 0 0 0 0 0 0 0 0 0 0 0 127 0"/>
<feOffset dy="4"/>
<feGaussianBlur stdDeviation="2"/>
<feColorMatrix type="matrix" values="0 0 0 0 0 0 0 0 0 0 0 0 0 0 0 0 0 0 0.25 0"/>
<feBlend mode="normal" in2="BackgroundImageFix" result="effect1_dropShadow"/>
<feColorMatrix in="SourceAlpha" type="matrix" values="0 0 0 0 0 0 0 0 0 0 0 0 0 0 0 0 0 0 127 0"/>
<feOffset dy="4"/>
<feGaussianBlur stdDeviation="2"/>
<feColorMatrix type="matrix" values="0 0 0 0 0 0 0 0 0 0 0 0 0 0 0 0 0 0 0.25 0"/>
<feBlend mode="normal" in2="effect1_dropShadow" result="effect2_dropShadow"/>
<feBlend mode="normal" in="SourceGraphic" in2="effect2_dropShadow" result="shape"/>
</filter>
</defs>
</svg>
